HIERARCHY
ROOT hip
{
  OFFSET 0.00112043 5.09927 -9.65472
  CHANNELS 6 Xposition Yposition Zposition Zrotation Xrotation Yrotation
  JOINT abdomen
  {
    OFFSET 0 -1.186 -1.5018
    CHANNELS 3 Zrotation Xrotation Yrotation
    JOINT abdomen2
    {
      OFFSET 0 9.964 0.2134
      CHANNELS 3 Zrotation Xrotation Yrotation
      JOINT chest
      {
        OFFSET 0 13.134 -3.2573
        CHANNELS 3 Zrotation Xrotation Yrotation
        JOINT neck
        {
          OFFSET 0 20.686 -1.6905
          CHANNELS 3 Zrotation Xrotation Yrotation
          JOINT head
          {
            OFFSET 0 7.238 -0.1237
            CHANNELS 3 Zrotation Xrotation Yrotation
            End Site
            {
              OFFSET 0 0 0
            }
          }
        }
        JOINT lCollar
        {
          OFFSET 1.7069 20.075 5.0056
          CHANNELS 3 Zrotation Xrotation Yrotation
          JOINT lShldr
          {
            OFFSET 13.6458 -0.047 -4.849
            CHANNELS 3 Zrotation Xrotation Yrotation
            JOINT lForeArm
            {
              OFFSET 28.3255 -0.9759 2.2888
              CHANNELS 3 Zrotation Xrotation Yrotation
              JOINT lHand
              {
                OFFSET 22.1583 -0.53 10.8316
                CHANNELS 3 Zrotation Xrotation Yrotation
                JOINT lThumb1
                {
                  OFFSET 0.786 0.112 2.5817
                  CHANNELS 3 Zrotation Xrotation Yrotation
                  JOINT lThumb2
                  {
                    OFFSET 0.3601 -0.878 4.2331
                    CHANNELS 3 Zrotation Xrotation Yrotation
                    JOINT lThumb2_End
                    {
                      OFFSET 1.8127 -1.216 2.2227
                      CHANNELS 3 Zrotation Xrotation Yrotation
                      End Site
                      {
                        OFFSET 0.0181 -0.0122 0.0222
                      }
                    }
                  }
                }
                JOINT lCarpal1
                {
                  OFFSET 0.9571 1.114 1.7695
                  CHANNELS 3 Zrotation Xrotation Yrotation
                  JOINT lIndex1
                  {
                    OFFSET 4.1246 0.487 4.1451
                    CHANNELS 3 Zrotation Xrotation Yrotation
                    JOINT lIndex2
                    {
                      OFFSET 3.4052 -1.454 2.7682
                      CHANNELS 3 Zrotation Xrotation Yrotation
                      JOINT lIndex2_End
                      {
                        OFFSET 1.4531 -1.795 1.2713
                        CHANNELS 3 Zrotation Xrotation Yrotation
                        End Site
                        {
                          OFFSET 0.0145 -0.0179 0.0127
                        }
                      }
                    }
                  }
                  JOINT lMid1
                  {
                    OFFSET 5.6954 0.21 2.1184
                    CHANNELS 3 Zrotation Xrotation Yrotation
                    JOINT lMid2
                    {
                      OFFSET 3.9766 -1.54 2.3863
                      CHANNELS 3 Zrotation Xrotation Yrotation
                      JOINT lMid2_End
                      {
                        OFFSET 1.4042 -1.926 1.125
                        CHANNELS 3 Zrotation Xrotation Yrotation
                        End Site
                        {
                          OFFSET 0.014 -0.0193 0.0113
                        }
                      }
                    }
                  }
                }
                JOINT lCarpal2
                {
                  OFFSET 2.0956 0.66 -0.3894
                  CHANNELS 3 Zrotation Xrotation Yrotation
                  JOINT lRing1
                  {
                    OFFSET 5.0395 -0.09 2.4971
                    CHANNELS 3 Zrotation Xrotation Yrotation
                    JOINT lRing2
                    {
                      OFFSET 3.7921 -1.552 1.4806
                      CHANNELS 3 Zrotation Xrotation Yrotation
                      JOINT lRing2_End
                      {
                        OFFSET 1.4655 -1.808 0.9609
                        CHANNELS 3 Zrotation Xrotation Yrotation
                        End Site
                        {
                          OFFSET 0.0147 -0.0181 0.0096
                        }
                      }
                    }
                  }
                  JOINT lPinky1
                  {
                    OFFSET 4.9141 -1.269 0.3591
                    CHANNELS 3 Zrotation Xrotation Yrotation
                    JOINT lPinky2
                    {
                      OFFSET 3.1477 -1.685 0.8462
                      CHANNELS 3 Zrotation Xrotation Yrotation
                      JOINT lPinky2_End
                      {
                        OFFSET 0.8055 -1.585 0.7955
                        CHANNELS 3 Zrotation Xrotation Yrotation
                        End Site
                        {
                          OFFSET 0.0081 -0.0158 0.008
                        }
                      }
                    }
                  }
                }
              }
            }
          }
        }
        JOINT rCollar
        {
          OFFSET -1.7069 20.075 5.0056
          CHANNELS 3 Zrotation Xrotation Yrotation
          JOINT rShldr
          {
            OFFSET -13.6458 -0.047 -4.849
            CHANNELS 3 Zrotation Xrotation Yrotation
            JOINT rForeArm
            {
              OFFSET -28.3255 -0.9759 2.2888
              CHANNELS 3 Zrotation Xrotation Yrotation
              JOINT rHand
              {
                OFFSET -22.1583 -0.53 10.8316
                CHANNELS 3 Zrotation Xrotation Yrotation
                JOINT rThumb1
                {
                  OFFSET -0.786 0.112 2.5817
                  CHANNELS 3 Zrotation Xrotation Yrotation
                  JOINT rThumb2
                  {
                    OFFSET -0.3601 -0.878 4.2331
                    CHANNELS 3 Zrotation Xrotation Yrotation
                    JOINT rThumb2_End
                    {
                      OFFSET -1.8127 -1.216 2.2227
                      CHANNELS 3 Zrotation Xrotation Yrotation
                      End Site
                      {
                        OFFSET -0.0181 -0.0122 0.0222
                      }
                    }
                  }
                }
                JOINT rCarpal1
                {
                  OFFSET -0.9571 1.114 1.7695
                  CHANNELS 3 Zrotation Xrotation Yrotation
                  JOINT rIndex1
                  {
                    OFFSET -4.1246 0.487 4.1451
                    CHANNELS 3 Zrotation Xrotation Yrotation
                    JOINT rIndex2
                    {
                      OFFSET -3.4052 -1.454 2.7682
                      CHANNELS 3 Zrotation Xrotation Yrotation
                      JOINT rIndex2_End
                      {
                        OFFSET -1.4531 -1.795 1.2713
                        CHANNELS 3 Zrotation Xrotation Yrotation
                        End Site
                        {
                          OFFSET -0.0145 -0.018 0.0127
                        }
                      }
                    }
                  }
                  JOINT rMid1
                  {
                    OFFSET -5.6954 0.21 2.1184
                    CHANNELS 3 Zrotation Xrotation Yrotation
                    JOINT rMid2
                    {
                      OFFSET -3.9766 -1.54 2.3863
                      CHANNELS 3 Zrotation Xrotation Yrotation
                      JOINT rMid2_End
                      {
                        OFFSET -1.4042 -1.926 1.125
                        CHANNELS 3 Zrotation Xrotation Yrotation
                        End Site
                        {
                          OFFSET -0.014 -0.0193 0.0113
                        }
                      }
                    }
                  }
                }
                JOINT rCarpal2
                {
                  OFFSET -2.0956 0.66 -0.3894
                  CHANNELS 3 Zrotation Xrotation Yrotation
                  JOINT rRing1
                  {
                    OFFSET -5.0395 -0.09 2.4971
                    CHANNELS 3 Zrotation Xrotation Yrotation
                    JOINT rRing2
                    {
                      OFFSET -3.7921 -1.552 1.4806
                      CHANNELS 3 Zrotation Xrotation Yrotation
                      JOINT rRing2_End
                      {
                        OFFSET -1.4655 -1.808 0.9609
                        CHANNELS 3 Zrotation Xrotation Yrotation
                        End Site
                        {
                          OFFSET -0.0147 -0.0181 0.0096
                        }
                      }
                    }
                  }
                  JOINT rPinky1
                  {
                    OFFSET -4.9141 -1.269 0.3592
                    CHANNELS 3 Zrotation Xrotation Yrotation
                    JOINT rPinky2
                    {
                      OFFSET -3.1477 -1.685 0.8462
                      CHANNELS 3 Zrotation Xrotation Yrotation
                      JOINT rPinky2_End
                      {
                        OFFSET -0.8055 -1.585 0.7955
                        CHANNELS 3 Zrotation Xrotation Yrotation
                        End Site
                        {
                          OFFSET -0.0081 -0.0158 0.008
                        }
                      }
                    }
                  }
                }
              }
            }
          }
        }
      }
    }
  }
  JOINT lThigh
  {
    OFFSET 8.367 -8.2066 0.5982
    CHANNELS 3 Zrotation Xrotation Yrotation
    JOINT lShin
    {
      OFFSET 2.1923 -43.463 -0.4932
      CHANNELS 3 Zrotation Xrotation Yrotation
      JOINT lFoot
      {
        OFFSET 0.7333 -45.8593 -2.6451
        CHANNELS 3 Zrotation Xrotation Yrotation
        End Site
        {
          OFFSET 2.6618 -4.2699 12.3931
        }
      }
    }
  }
  JOINT rThigh
  {
    OFFSET -8.367 -8.2066 0.5982
    CHANNELS 3 Zrotation Xrotation Yrotation
    JOINT rShin
    {
      OFFSET -2.1923 -43.463 -0.4931
      CHANNELS 3 Zrotation Xrotation Yrotation
      JOINT rFoot
      {
        OFFSET -0.7333 -45.8593 -2.6451
        CHANNELS 3 Zrotation Xrotation Yrotation
        End Site
        {
          OFFSET -2.6618 -4.2699 12.3931
        }
      }
    }
  }
}
MOTION
Frames:	4
Frame Time:	0.0333333
0.00488403 12.6815 9.20822 0 85.7025 -0 -0.30999 0.0826785 -0.108324 -0.619824 0.165962 -0.216199 -0.619825 0.165937 -0.216199 24.8488 14.5837 -6.65296 19.4399 21.8116 -7.47377 -8.00265 -0.194467 1.02187e-006 -78.133 -10.8867 -57.6143 45.995 -31.4628 -92.8728 -3.82958 9.25574 -0.444965 1.34281e-006 1.01658e-006 -2.02939e-007 1.8511e-006 3.45178e-007 -3.00353e-007 1.34281e-006 1.01658e-006 -2.02939e-007 3.97569e-016 9.93923e-016 -6.36111e-015 1.34281e-006 1.01658e-006 -2.02939e-007 1.8511e-006 3.45178e-007 -3.00353e-007 1.34281e-006 1.01658e-006 -2.02939e-007 1.34281e-006 1.01658e-006 -2.02939e-007 1.8511e-006 3.45178e-007 -3.00353e-007 1.34281e-006 1.01658e-006 -2.02939e-007 3.97569e-016 9.93923e-016 -6.36111e-015 1.34281e-006 1.01658e-006 -2.02939e-007 1.8511e-006 3.45178e-007 -3.00353e-007 1.34281e-006 1.01658e-006 -2.02939e-007 1.34281e-006 1.01658e-006 -2.02939e-007 1.8511e-006 3.45178e-007 -3.00353e-007 1.34281e-006 1.01658e-006 -2.02939e-007 7.99916 -0.194704 4.60555e-008 78.2434 -10.7119 58.3657 -46.2745 -32.506 92.0293 3.7511 9.26134 0.697254 5.23326e-007 6.61656e-007 -8.42868e-008 -4.77083e-015 -7.25564e-015 -9.54166e-015 1.84664e-006 -3.84995e-007 -2.85953e-007 -1.29658e-031 4.67144e-015 1.59028e-015 5.23326e-007 6.61656e-007 -8.42868e-008 -4.77083e-015 -3.67752e-015 -1.27222e-014 1.84664e-006 -3.84995e-007 -2.85953e-007 5.23326e-007 6.61656e-007 -8.42868e-008 -4.77083e-015 -3.67752e-015 -1.27222e-014 1.84664e-006 -3.84995e-007 -2.85953e-007 -1.29658e-031 4.67144e-015 1.59028e-015 5.23326e-007 6.61656e-007 -8.42868e-008 -4.77083e-015 -3.67752e-015 -1.27222e-014 1.84664e-006 -3.84995e-007 -2.85953e-007 5.23326e-007 6.61656e-007 -8.42868e-008 -4.77083e-015 -3.67752e-015 -1.27222e-014 1.84664e-006 -3.84995e-007 -2.85953e-007 126.11 -25.0462 113.583 -177.146 51.7818 -173.318 -1.77516 29.0763 10.4474 -126.122 -25.0439 -113.596 177.257 51.7797 173.258 1.78363 29.1047 -10.4562 
0.00483005 12.6913 9.21431 0 85.458 -0 -0.310061 0.144485 -0.107298 -0.619855 0.28958 -0.213814 -0.619854 0.289573 -0.213814 24.8485 14.5839 -6.65319 19.4399 21.8116 -7.47376 -8.00305 -0.194282 -0.000112596 -78.133 -10.8867 -57.6143 45.995 -31.4628 -92.8728 -3.82958 9.25574 -0.444959 -1.98785e-015 2.08724e-015 -3.18055e-015 6.7146e-007 5.08239e-007 -1.01089e-007 -1.19271e-015 4.17448e-015 -6.36111e-015 -3.97569e-016 1.59028e-015 -3.18055e-015 7.95139e-016 -1.39149e-015 9.54166e-015 6.7146e-007 5.08239e-007 -1.01089e-007 -1.87591e-031 3.37934e-015 3.18055e-015 7.95139e-016 -1.39149e-015 9.54166e-015 6.7146e-007 5.08239e-007 -1.01089e-007 -1.87591e-031 3.37934e-015 3.18055e-015 -3.97569e-016 1.59028e-015 -3.18055e-015 7.95139e-016 -1.39149e-015 9.54166e-015 6.7146e-007 5.08239e-007 -1.01089e-007 -1.87591e-031 3.37934e-015 3.18055e-015 7.95139e-016 -1.39149e-015 9.54166e-015 6.7146e-007 5.08239e-007 -1.01089e-007 -1.87591e-031 3.37934e-015 3.18055e-015 7.99876 -0.19456 -0.000160761 78.2434 -10.7119 58.3657 -46.2745 -32.506 92.0293 3.75109 9.26135 0.69723 4.21668e-006 -1.07956e-007 -6.55585e-007 7.95139e-016 3.77691e-015 -3.18055e-015 1.56983e-006 1.98514e-006 -2.53747e-007 -1.19271e-015 1.09332e-015 3.18055e-015 4.21668e-006 -1.07956e-007 -6.55585e-007 3.97569e-016 1.68967e-015 -1.59028e-015 1.56983e-006 1.98514e-006 -2.53747e-007 4.21668e-006 -1.07956e-007 -6.55585e-007 3.97569e-016 1.68967e-015 -1.59028e-015 1.56983e-006 1.98514e-006 -2.53747e-007 -1.19271e-015 1.09332e-015 3.18055e-015 4.21668e-006 -1.07956e-007 -6.55585e-007 3.97569e-016 1.68967e-015 -1.59028e-015 1.56983e-006 1.98514e-006 -2.53747e-007 4.21668e-006 -1.07956e-007 -6.55585e-007 3.97569e-016 1.68967e-015 -1.59028e-015 1.56983e-006 1.98514e-006 -2.53747e-007 125.884 -25.2278 113.357 -177.145 51.775 -173.336 -1.55957 29.0276 10.3266 -125.896 -25.2245 -113.37 177.256 51.7731 173.275 1.56944 29.0652 -10.3367 
0.00477769 12.7011 9.22023 0 85.2134 -0 -0.310262 0.206383 -0.106315 -0.620146 0.413338 -0.211512 -0.620147 0.413321 -0.211512 24.8488 14.5834 -6.65309 19.4399 21.8116 -7.47378 -8.00283 -0.194341 -4.14709e-005 -78.133 -10.8867 -57.6143 45.995 -31.4628 -92.8728 -3.82958 9.25575 -0.444964 1.01993e-006 1.27799e-006 1.20049e-006 1.34303e-006 1.01637e-006 -2.01418e-007 1.1797e-006 -1.63329e-007 -1.98699e-007 -1.19271e-015 -5.86415e-015 -3.18055e-015 1.01993e-006 1.27799e-006 1.20049e-006 1.34303e-006 1.01637e-006 -2.01418e-007 1.1797e-006 -1.63329e-007 -1.98699e-007 1.01993e-006 1.27799e-006 1.20049e-006 1.34303e-006 1.01637e-006 -2.01418e-007 1.1797e-006 -1.63329e-007 -1.98699e-007 -1.19271e-015 -5.86415e-015 -3.18055e-015 1.01993e-006 1.27799e-006 1.20049e-006 1.34303e-006 1.01637e-006 -2.01418e-007 1.1797e-006 -1.63329e-007 -1.98699e-007 1.01993e-006 1.27799e-006 1.20049e-006 1.34303e-006 1.01637e-006 -2.01418e-007 1.1797e-006 -1.63329e-007 -1.98699e-007 7.99899 -0.194596 -7.61707e-005 78.2434 -10.7119 58.3657 -46.2745 -32.506 92.0293 3.75109 9.26135 0.697242 1.04645e-006 1.32355e-006 -1.69756e-007 1.82988e-006 2.28003e-006 8.38546e-007 4.11272e-006 5.22506e-007 7.932e-006 8.55194e-032 3.08116e-015 -1.59028e-015 1.04645e-006 1.32355e-006 -1.69756e-007 1.82988e-006 2.28003e-006 8.38546e-007 4.11272e-006 5.22506e-007 7.932e-006 1.04645e-006 1.32355e-006 -1.69756e-007 1.82988e-006 2.28003e-006 8.38546e-007 4.11272e-006 5.22506e-007 7.932e-006 8.55194e-032 3.08116e-015 -1.59028e-015 1.04645e-006 1.32355e-006 -1.69756e-007 1.82988e-006 2.28003e-006 8.38546e-007 4.11272e-006 5.22506e-007 7.932e-006 1.04645e-006 1.32355e-006 -1.69756e-007 1.82988e-006 2.28003e-006 8.38546e-007 4.11272e-006 5.22506e-007 7.932e-006 125.658 -25.4087 113.13 -177.144 51.768 -173.353 -1.34418 28.9785 10.206 -125.669 -25.4043 -113.143 177.254 51.7664 173.292 1.3554 29.0253 -10.2174 
0.00472115 12.7111 9.22596 0 84.9688 -0 -0.310425 0.268277 -0.105315 -0.620366 0.537146 -0.209177 -0.620366 0.537128 -0.209177 24.8486 14.5838 -6.65306 19.4399 21.8116 -7.47378 -8.00282 -0.194328 -3.69181e-005 -78.133 -10.8867 -57.6143 45.995 -31.4628 -92.8728 -3.82958 9.25575 -0.444962 1.85127e-006 3.44694e-007 -2.98935e-007 3.37567e-006 -1.67002e-006 -5.9377e-007 1.19271e-015 -3.57812e-015 3.18055e-015 -1.19271e-015 -8.94531e-016 -3.18055e-015 1.85127e-006 3.44694e-007 -2.98935e-007 3.37567e-006 -1.67002e-006 -5.9377e-007 2.09661e-031 -3.77691e-015 3.18055e-015 1.85127e-006 3.44694e-007 -2.98935e-007 3.37567e-006 -1.67002e-006 -5.9377e-007 2.09661e-031 -3.77691e-015 3.18055e-015 -1.19271e-015 -8.94531e-016 -3.18055e-015 1.85127e-006 3.44694e-007 -2.98935e-007 3.37567e-006 -1.67002e-006 -5.9377e-007 2.09661e-031 -3.77691e-015 3.18055e-015 1.85127e-006 3.44694e-007 -2.98935e-007 3.37567e-006 -1.67002e-006 -5.9377e-007 2.09661e-031 -3.77691e-015 3.18055e-015 7.99899 -0.194586 -7.40231e-005 78.2434 -10.7119 58.3657 -46.2745 -32.506 92.0293 3.75109 9.26135 0.697251 1.18501e-006 1.38657e-007 -1.84885e-007 2.37001e-006 2.77314e-007 -3.69769e-007 1.18501e-006 1.38657e-007 -1.84885e-007 -3.97569e-016 2.5842e-015 -6.36111e-015 1.18501e-006 1.38657e-007 -1.84885e-007 2.37001e-006 2.77314e-007 -3.69769e-007 1.18501e-006 1.38657e-007 -1.84885e-007 1.18501e-006 1.38657e-007 -1.84885e-007 2.37001e-006 2.77314e-007 -3.69769e-007 1.18501e-006 1.38657e-007 -1.84885e-007 -3.97569e-016 2.5842e-015 -6.36111e-015 1.18501e-006 1.38657e-007 -1.84885e-007 2.37001e-006 2.77314e-007 -3.69769e-007 1.18501e-006 1.38657e-007 -1.84885e-007 1.18501e-006 1.38657e-007 -1.84885e-007 2.37001e-006 2.77314e-007 -3.69769e-007 1.18501e-006 1.38657e-007 -1.84885e-007 125.431 -25.589 112.902 -177.142 51.7609 -173.37 -1.12887 28.929 10.0858 -125.442 -25.5836 -112.914 177.253 51.7596 173.309 1.14148 28.9851 -10.0983 
